<svg width="25" height="29" viewBox="0 0 25 29" fill="none" xmlns="http://www.w3.org/2000/svg">
<path d="M2.67239 26.2401L2.38826 24.3024V22.4702L1.29443 22.019L2.38826 19.2708C2.70729 18.3638 3.34535 16.5307 3.34535 16.4542C3.34535 16.3776 4.0928 15.0368 4.46652 14.3759L4.83569 13.9931L5.84747 13.7333L7.50188 13.118L8.54102 12.5848L9.44342 12.0515L9.74422 11.9285L10.0997 11.4499L10.1954 10.6706L10.0997 9.85021L9.74422 9.00249L9.51178 7.8403L8.86916 7.01994L8.8008 5.39287L9.23833 5.46124L9.19731 3.76581L9.78524 2.16609L10.9748 1.40042L12.4378 1.01758L13.6 1.16798L15.2407 2.16609L15.6782 3.54705L15.7739 5.29716V5.59797L16.2798 5.55695L15.6099 7.3891L15.145 8.3462L14.9399 9.12555L14.475 10.0006L14.352 10.2194L14.475 11.7234L15.0082 12.3523L16.731 13.2684L18.823 14.1024L20.1355 14.8818L21.2294 17.8761L22.1318 20.7338L23.0205 22.7847L22.1318 23.2085V24.0684V25.3564L21.9488 25.9106" stroke="#FF0000" stroke-width="2"/>
<path d="M18.3579 27.9611C19.1967 25.6545 18.5389 27.1131 18.8033 26.7029L18.2075 24.6563L18.3579 23.6035" stroke="#FF0000" stroke-width="2"/>
<path d="M5.43701 22.8945L5.5464 24.6993L5.43701 26.7199L5.5464 27.8582" stroke="#FF0000" stroke-width="2"/>
<path d="M2.82617 22.6348L4.9728 22.8672" stroke="#FF0000" stroke-width="2"/>
<path d="M18.8096 23.5645H19.9991L21.4211 23.3184" stroke="#FF0000" stroke-width="2"/>
<path d="M10.4966 10.3145L11.3033 11.0938L12.1236 11.2305L13.0944 11.0938L13.8874 10.6563" stroke="#FF0000" stroke-width="2"/>
</svg>
