<svg width="1120" height="1120" viewBox="0 0 1120 1120" fill="none" xmlns="http://www.w3.org/2000/svg">
<circle cx="560" cy="560" r="560" fill="white"/>
<path d="M532.5 549L580 578H611L638 573L662 560.5L668.5 549" stroke="#FF0000" stroke-width="20"/>
<path d="M350.5 1064.9C350.5 1060.5 357.833 959 361.5 881.5V694L323.5 677.5H282L274.5 649.5L167.5 620.5L90.5 584.5L58.5 565.5L42 538V514L87.5 482L143.5 434.5L199.5 395L251 364.5L291 332L315.5 299L338 262.5L357.5 240L394 242.5V225.5L419.5 236V219.5L439 225.5L441 212L482 218L507.5 215L602.5 192.5L670.5 189L719 195L765 192.5L801 287.5L816 389V472.5L812 505L840.5 549.5L808 569L801.5 622.5L805 701L808 796L825.5 918.5L840.5 976.5L859.5 1020" stroke="#FF0000" stroke-width="20"/>
<path d="M377 357.5L349 365.5L326 383L294.5 407.5L248.5 456L209.5 510L203 522L235.5 524.5L261 523L322.5 524.5L368.5 521.5L400 523.5L436 527L473 518.5L488 529.5H517L530.5 524.5L542 512V485.5L533.5 445L521.5 415.5L511.5 365.5L530.5 367L533.5 309.5L560 272.5L590.5 256.5L631.5 249.5L685.5 266L715.5 295V340L722 361L730 369.5L722 413.5L700 445L686 483L676 500.5" stroke="#FF0000" stroke-width="20"/>
<path d="M385.5 364L408 391.5L420.5 348L442.5 323.5L456 298.5L469.5 283.5L517.5 278H533" stroke="#FF0000" stroke-width="20"/>
<path d="M149 537L184 525.5" stroke="#FF0000" stroke-width="20"/>
<path d="M560 512.5C561.2 513.7 592.833 533 608.5 542.5L663 507" stroke="#FF0000" stroke-width="20"/>
<path d="M720 446.5L794.5 523.5" stroke="#FF0000" stroke-width="20"/>
<path d="M259.5 542L268.5 623" stroke="#FF0000" stroke-width="20"/>
</svg>
