<svg width="1120" height="1120" viewBox="0 0 1120 1120" fill="none" xmlns="http://www.w3.org/2000/svg">
<circle cx="560" cy="560" r="560" fill="#FF0000"/>
<path d="M352.414 708.046L386.207 699.598" stroke="white" stroke-width="20"/>
<path d="M269 1028.5C280 991.5 285.498 972.625 306.149 912.817L316.609 877.012L280 881.035L257.069 818.276L262.299 687.529L265.115 667.817L243.391 636.437L248.218 612.299L277.184 575.69L307.758 522.184L347.184 464.253L369.31 444.138L391.437 434.483L413.965 441.725L436.494 455.805L453.793 462.644H496.437L518.161 458.219L529.023 454.196L538.276 432.069L533.85 397.472V366.495L529.023 347.184L529.827 314.598L537.069 313.794L541.092 284.426L553.563 247.012L576.092 218.851L611.896 201.15L639.655 197.127L664.598 201.955L708.046 224.886L728.563 251.437V288.046L725.345 315.403L719.31 335.518L731.781 334.713L714.08 381.38L690.747 398.276L672.241 436.092L656.954 455.805L645.287 490.403V504.886L662.184 522.587L689.138 539.886H704.827L735.804 532.644L772.414 548.736L796.954 590.575L805.402 624.368L815.057 664.196L836.379 697.184L858.908 740.633L863.735 776.035C866.954 789.847 873.23 817.874 872.586 819.483C871.942 821.092 868.563 844.828 866.954 856.495L858.908 886.265L838.793 909.196L797.356 897.529L735 873.391L742.241 918.046L745.057 999.713L755 1079.5" stroke="white" stroke-width="20"/>
<path d="M544.713 439.311L569.253 465.058L589.77 472.701L621.15 471.494L643.678 462.242" stroke="white" stroke-width="20"/>
<path d="M263.908 613.908L312.586 617.127L363.276 625.977L404.713 643.678L407.127 653.333" stroke="white" stroke-width="20"/>
<path d="M726.954 690.747L770.402 682.299L798.563 685.517L827.529 696.782" stroke="white" stroke-width="20"/>
<path d="M492.011 599.425L475.92 584.943L462.644 577.299L447.356 543.506L436.092 549.54L433.276 568.046L438.103 590.977L447.356 605.058L429.655 623.161L415.575 642.069" stroke="white" stroke-width="20"/>
<path d="M406.724 662.988L393.448 697.586H458.621H503.678L562.414 749.08L597.011 777.643L639.253 817.471L683.908 850.862L720.517 868.161" stroke="white" stroke-width="20"/>
<path d="M331.092 872.586L366.896 863.333L428.85 851.264L492.816 831.149L545.919 812.644L597.414 786.896" stroke="white" stroke-width="20"/>
<path d="M499.253 600.633L533.851 610.288L579.713 636.035L658.966 671.437L694.368 686.322L718.506 693.162" stroke="white" stroke-width="20"/>
<path d="M647.701 658.966L665 642.069L680.287 630.805L691.552 626.38L707.644 607.471L716.494 597.012H730.172L734.195 609.081L730.172 622.759L718.103 637.644L707.644 646.494L709.655 658.966L715.287 667.816L718.103 683.908" stroke="white" stroke-width="20"/>
<path d="M520.977 469.885L557.989 501.666L582.126 516.954L618.333 519.77L641.667 516.954" stroke="white" stroke-width="20"/>
<path d="M728.966 699.195L757.127 709.655L776.437 720.517L800.173 734.598L808.219 744.253" stroke="white" stroke-width="20"/>
</svg>
