<svg width="1120" height="1120" viewBox="0 0 1120 1120" fill="none" xmlns="http://www.w3.org/2000/svg">
<circle cx="560" cy="560" r="560" fill="#FF0000"/>
<path d="M243 1017L233.515 952.312V891.149L197 876.087L233.515 784.343C244.165 754.066 265.465 692.873 265.465 690.317C265.465 687.761 290.417 643 302.893 620.939L315.217 608.158L348.993 599.486L404.222 578.946L438.911 561.145L469.036 543.344L479.078 539.236L490.945 523.261L494.14 497.244L490.945 469.858L479.078 441.559L471.318 402.762L449.866 375.376L447.584 321.06L462.19 323.342L460.82 266.744L480.447 213.341L520.157 187.78L568.996 175L607.793 180.021L662.565 213.341L677.171 259.441L680.366 317.865V327.906L697.255 326.537L674.889 387.699L659.37 419.65L652.524 445.667L637.005 474.879L632.897 482.182L637.005 532.39L654.806 553.386L712.317 583.967L782.152 611.81L825.97 637.827L862.485 737.786L892.609 833.182L922.278 901.647L892.609 915.797V944.5V987.5L886.5 1006" stroke="white" stroke-width="20"/>
<path d="M766.633 1074.5C794.632 997.5 772.676 1046.19 781.5 1032.5L761.612 964.179L766.633 929.033" stroke="white" stroke-width="20"/>
<path d="M335.3 905.299L338.952 965.548L335.3 1033L338.952 1071" stroke="white" stroke-width="20"/>
<path d="M248.121 896.627L319.782 904.386" stroke="white" stroke-width="20"/>
<path d="M781.695 927.663H821.405L868.875 919.447" stroke="white" stroke-width="20"/>
<path d="M486.381 560.689L539.328 591.727L591.361 587.619L625.594 578.49L642.939 567.536" stroke="white" stroke-width="20"/>
<path d="M504.182 485.377L531.111 511.394L558.498 515.958L590.905 511.394L617.378 496.788" stroke="white" stroke-width="20"/>
</svg>
