<svg width="1120" height="1120" viewBox="0 0 1120 1120" fill="none" xmlns="http://www.w3.org/2000/svg">
<circle cx="560" cy="560" r="560" fill="#FF0000"/>
<path d="M391.828 532.594L422.11 561.614L452.392 574.232H473.842L499.077 568.343L518.003 554.044" stroke="white" stroke-width="20"/>
<path d="M142 899.345L187.423 726.485L200.461 702.511L236.211 679.8L337.572 635.638L356.498 620.497L359.022 623.021L378.789 605.356L383.416 559.092L385.098 520.398L373.742 494.322V461.096L353.134 432.075L357.76 380.764L364.49 379.081L371.639 385.811L376.266 344.594L396.454 300.853L431.363 270.571L459.121 264.262L496.553 263L541.135 284.45L574.362 318.938L584.876 356.79L583.194 392.54L578.147 420.719L576.044 427.869H586.138L576.044 465.301L559.641 480.863L541.556 522.08L529.359 543.951L525.153 551.942L523.891 572.971L526.835 591.898L560.903 612.086L589.923 620.918L598.335 626.385H640.393L688.761 628.068L742.596 660.032L785.916 695.782L801.898 700.829L813.674 723.541L880.127 750.879L873.398 695.782L850.686 628.068L801.898 526.707L787.598 519.557L736.707 483.387L723.669 455.628L691.705 404.737L714.416 401.793L753.11 432.916C749.605 417.074 742.511 384.97 742.175 383.287C741.839 381.605 736.707 345.014 734.184 326.929L736.707 299.17L753.11 296.226L761.942 331.135L769.934 366.885L776.242 380.343" stroke="white" stroke-width="20"/>
<path d="M755.213 292.018L757.736 276.456L766.989 272.25H780.448L782.551 286.129L787.598 313.047L796.43 339.544L804.842 365.199" stroke="white" stroke-width="20"/>
<path d="M785.916 282.345L796.851 277.719L807.786 282.345L816.618 308.001L829.656 342.068L839.33 372.35" stroke="white" stroke-width="20"/>
<path d="M820.824 309.685L834.704 303.797L845.639 313.05C849.845 320.06 858.425 334.247 859.097 334.92C859.77 335.593 867.509 361.838 871.294 374.876L892.324 427.869L897.791 465.722L900.315 500.21L902.838 527.969L918.4 558.671L952.047 620.918L986.955 720.176L1005.04 773.59L1012.61 800.508" stroke="white" stroke-width="20"/>
<path d="M881.389 758.027L901.156 810.6" stroke="white" stroke-width="20"/>
<path d="M806.104 858.969C806.777 858.969 851.808 877.194 874.239 886.307L940.691 909.439" stroke="white" stroke-width="20"/>
<path d="M796.01 856.865L786.757 884.203L751.007 845.088L738.39 839.621L732.501 806.395" stroke="white" stroke-width="20"/>
<path d="M737.969 848.033L737.128 912.383L729.978 978.835V1038.14L731.66 1079.78" stroke="white" stroke-width="20"/>
<path d="M359.443 628.066L381.734 638.161L419.587 642.366L466.272 638.161L497.815 631.852L521.368 620.496L529.78 603.252" stroke="white" stroke-width="20"/>
<path d="M256.399 1020.89V974.208L249.669 953.179V906.915L237.893 861.912" stroke="white" stroke-width="20"/>
</svg>
